<?xml version="1.0" encoding="utf-8"?>
<!-- Generator: Adobe Illustrator 16.0.0, SVG Export Plug-In . SVG Version: 6.00 Build 0)  -->
<!DOCTYPE svg PUBLIC "-//W3C//DTD SVG 1.1//EN" "http://www.w3.org/Graphics/SVG/1.1/DTD/svg11.dtd">
<svg version="1.1" id="Layer_1" xmlns="http://www.w3.org/2000/svg" xmlns:xlink="http://www.w3.org/1999/xlink" x="0px" y="0px"
	 width="200px" height="200px" viewBox="0 0 200 200" enable-background="new 0 0 200 200" xml:space="preserve">
<path fill="#FFFFFF" d="M53.109,30.781L76.906,72l34.12-59.098C107.436,12.317,103.756,12,100,12
	C81.814,12,65.309,19.154,53.109,30.781z"/>
<path fill="#FFFFFF" d="M119.189,14.763L95.381,56h68.248C156.148,36.179,139.68,20.782,119.189,14.763z"/>
<path fill="#FFFFFF" d="M118.475,64l34.121,59.098C162.219,111.366,168,96.358,168,80c0-5.514-0.674-10.867-1.912-16H118.475z"/>
<path fill="#FFFFFF" d="M47.405,36.902C37.781,48.634,32,63.642,32,80c0,5.514,0.674,10.867,1.912,16h47.614L47.405,36.902z"/>
<path fill="#FFFFFF" d="M88.975,147.096C92.565,147.684,96.245,148,100,148c18.186,0,34.689-7.152,46.891-18.781L123.094,88
	L88.975,147.096z"/>
<path fill="#FFFFFF" d="M36.371,104c7.48,19.82,23.949,35.218,44.44,41.235L104.619,104H36.371z"/>
</svg>
