<?xml version="1.0" encoding="utf-8"?>
<!-- Generator: Adobe Illustrator 16.0.0, SVG Export Plug-In . SVG Version: 6.00 Build 0)  -->
<!DOCTYPE svg PUBLIC "-//W3C//DTD SVG 1.1//EN" "http://www.w3.org/Graphics/SVG/1.1/DTD/svg11.dtd">
<svg version="1.1"
	 id="Layer_1" xmlns:dc="http://purl.org/dc/elements/1.1/" xmlns:rdf="http://www.w3.org/1999/02/22-rdf-syntax-ns#" xmlns:cc="http://creativecommons.org/ns#" xmlns:inkscape="http://www.inkscape.org/namespaces/inkscape" xmlns:svg="http://www.w3.org/2000/svg" xmlns:sodipodi="http://sodipodi.sourceforge.net/DTD/sodipodi-0.dtd"
	 xmlns="http://www.w3.org/2000/svg" xmlns:xlink="http://www.w3.org/1999/xlink" x="0px" y="0px" width="200px" height="200px"
	 viewBox="0 0 200 200" enable-background="new 0 0 200 200" xml:space="preserve">
<g transform="translate(0,-952.36218)">
	<path fill="#FFFFFF" d="M80.8,977.962l-8,16h-32c-6.205,0-11.2,4.995-11.2,11.2v70.4c0,6.204,4.995,11.2,11.2,11.2h118.4
		c6.204,0,11.2-4.996,11.2-11.2v-70.4c0-6.205-4.996-11.2-11.2-11.2h-32l-8-16H80.8z M100,1006.762c18.5,0,33.6,15.1,33.6,33.6
		s-15.1,33.6-33.6,33.6s-33.6-15.1-33.6-33.6S81.5,1006.762,100,1006.762z M100,1016.362c-13.312,0-24,10.688-24,24s10.688,24,24,24
		c13.313,0,24-10.688,24-24S113.313,1016.362,100,1016.362z"/>
</g>
</svg>
