<?xml version="1.0" encoding="utf-8"?>
<!-- Generator: Adobe Illustrator 16.0.0, SVG Export Plug-In . SVG Version: 6.00 Build 0)  -->
<!DOCTYPE svg PUBLIC "-//W3C//DTD SVG 1.1//EN" "http://www.w3.org/Graphics/SVG/1.1/DTD/svg11.dtd">
<svg version="1.1" id="Layer_1" xmlns="http://www.w3.org/2000/svg" xmlns:xlink="http://www.w3.org/1999/xlink" x="0px" y="0px"
	 width="200px" height="200px" viewBox="0 0 200 200" enable-background="new 0 0 200 200" xml:space="preserve">
<path fill="#FFFFFF" d="M146.484,30.786H53.517c-12.533,0-22.731,10.198-22.731,22.731v92.967c0,12.532,10.198,22.731,22.731,22.731
	h92.968c12.533,0,22.731-10.199,22.731-22.731V53.517C169.216,40.984,159.018,30.786,146.484,30.786z M142.664,45.101
	c3.701,0,6.705,3.003,6.705,6.706c0,3.704-3.004,6.707-6.705,6.707c-3.704,0-6.707-3.003-6.707-6.707
	C135.957,48.103,138.96,45.101,142.664,45.101z M100,69.634c16.746,0,30.366,13.624,30.366,30.366s-13.62,30.366-30.366,30.366
	c-16.744,0-30.366-13.624-30.366-30.366S83.256,69.634,100,69.634z M158.037,146.483c0,6.37-5.183,11.554-11.554,11.554H53.517
	c-6.37,0-11.553-5.183-11.553-11.554v-67.85h22.429C60.627,84.882,58.455,92.19,58.455,100c0,22.908,18.637,41.543,41.545,41.543
	c22.907,0,41.545-18.635,41.545-41.543c0-7.813-2.182-15.12-5.951-21.366h22.443V146.483z"/>
</svg>
