<?xml version="1.0" encoding="utf-8"?>
<!-- Generator: Adobe Illustrator 16.0.0, SVG Export Plug-In . SVG Version: 6.00 Build 0)  -->
<!DOCTYPE svg PUBLIC "-//W3C//DTD SVG 1.1//EN" "http://www.w3.org/Graphics/SVG/1.1/DTD/svg11.dtd">
<svg version="1.1" id="Layer_1" xmlns="http://www.w3.org/2000/svg" xmlns:xlink="http://www.w3.org/1999/xlink" x="0px" y="0px"
	 width="200px" height="200px" viewBox="0 0 200 200" enable-background="new 0 0 200 200" xml:space="preserve">
<path fill="#FFFFFF" d="M100,38.632c-35.687,0-65.706,17.538-74.6,41.368c8.895,23.83,38.914,41.368,74.6,41.368
	S165.707,103.83,174.6,80C165.707,56.169,135.687,38.632,100,38.632z M100,112.012c-17.678,0-32.013-14.332-32.013-32.012
	S82.322,47.989,100,47.989c17.682,0,32.013,14.331,32.013,32.011S117.682,112.012,100,112.012z M100,59.6
	c-11.264,0-20.4,9.133-20.4,20.4s9.136,20.4,20.4,20.4c11.264,0,20.4-9.133,20.4-20.4S111.264,59.6,100,59.6z"/>
</svg>
