<?xml version="1.0" encoding="utf-8"?>
<!-- Generator: Adobe Illustrator 16.0.0, SVG Export Plug-In . SVG Version: 6.00 Build 0)  -->
<!DOCTYPE svg PUBLIC "-//W3C//DTD SVG 1.1//EN" "http://www.w3.org/Graphics/SVG/1.1/DTD/svg11.dtd">
<svg version="1.1" id="Capa_1" xmlns="http://www.w3.org/2000/svg" xmlns:xlink="http://www.w3.org/1999/xlink" x="0px" y="0px"
	 width="438.536px" height="438.535px" viewBox="0 0 438.536 438.535" enable-background="new 0 0 438.536 438.535"
	 xml:space="preserve">
<g>
	<g>
		<rect x="5.424" y="145.895" fill="#FFFFFF" width="94.216" height="282.932"/>
		<path fill="#FFFFFF" d="M408.842,171.739c-19.791-21.604-45.967-32.408-78.512-32.408c-11.992,0-22.891,1.475-32.695,4.427
			c-9.801,2.95-18.079,7.089-24.838,12.419c-6.756,5.33-12.135,10.278-16.129,14.844c-3.799,4.337-7.512,9.389-11.137,15.104
			v-40.232h-93.935l0.288,13.706c0.193,9.139,0.288,37.307,0.288,84.508c0,47.205-0.19,108.776-0.572,184.722h93.931V270.941
			c0-9.705,1.041-17.412,3.139-23.127c4-9.711,10.037-17.842,18.131-24.406c8.094-6.572,18.131-9.855,30.125-9.855
			c16.365,0,28.408,5.662,36.117,16.987c7.707,11.324,11.563,26.979,11.563,46.966V428.82h93.93V266.664
			C438.53,224.977,428.639,193.336,408.842,171.739z"/>
		<path fill="#FFFFFF" d="M53.103,9.708c-15.796,0-28.595,4.619-38.4,13.848C4.899,32.787,0,44.441,0,58.529
			C0,72.42,4.758,84.034,14.275,93.358c9.514,9.325,22.078,13.99,37.685,13.99h0.571c15.99,0,28.887-4.661,38.688-13.99
			c9.801-9.324,14.606-20.934,14.417-34.829c-0.19-14.087-5.047-25.742-14.561-34.973C81.562,14.323,68.9,9.708,53.103,9.708z"/>
	</g>
</g>
</svg>
