<?xml version="1.0" encoding="utf-8"?>
<!-- Generator: Adobe Illustrator 16.0.0, SVG Export Plug-In . SVG Version: 6.00 Build 0)  -->
<!DOCTYPE svg PUBLIC "-//W3C//DTD SVG 1.1//EN" "http://www.w3.org/Graphics/SVG/1.1/DTD/svg11.dtd">
<svg version="1.1" id="Layer_1" xmlns="http://www.w3.org/2000/svg" xmlns:xlink="http://www.w3.org/1999/xlink" x="0px" y="0px"
	 width="200px" height="200px" viewBox="0 0 200 200" enable-background="new 0 0 200 200" xml:space="preserve">
<title>Artboard 1</title>
<path d="M29.744,91.2c-0.665-1.398-0.452-3.055,0.544-4.24l14.4-17.36c1.555-1.856,4.32-2.099,6.176-0.544
	c0.197,0.165,0.379,0.347,0.544,0.544l14.4,17.36c1.414,1.686,1.193,4.199-0.493,5.613c-0.718,0.602-1.626,0.932-2.563,0.931H56.64
	c1.156,26.82,23.836,47.625,50.657,46.469s47.625-23.836,46.469-50.657S129.93,41.69,103.109,42.847
	c-15.281,0.659-29.36,8.472-38.005,21.089c-0.205,0.296-0.536,0.48-0.896,0.496C63.822,64.462,63.445,64.3,63.2,64l-9.6-11.504
	c-0.346-0.424-0.346-1.032,0-1.456c10.633-13.533,26.138-22.37,43.2-24.624v-6.4h-6.4c-4.64,0.487-8.797-2.879-9.284-7.519
	c-0.487-4.641,2.879-8.797,7.519-9.285c0.544-0.057,1.092-0.061,1.637-0.012h29.792c4.66-0.203,8.604,3.411,8.807,8.072
	s-3.41,8.604-8.072,8.808c-0.244,0.011-0.49,0.011-0.734,0h-6.4v6.4c11.588,1.504,22.557,6.096,31.76,13.296l7.2-7.2
	c3.153-3.439,8.497-3.672,11.937-0.519s3.672,8.497,0.519,11.936c-0.165,0.18-0.339,0.354-0.519,0.519l-7.265,7.264
	c8.731,11.357,13.447,25.291,13.408,39.616c0.565,36.164-28.292,65.938-64.456,66.504c-36.164,0.564-65.938-28.293-66.504-64.457
	h-6.4C31.811,93.455,30.408,92.582,29.744,91.2z M132.576,64c-1.879-1.886-4.865-2.084-6.977-0.464L106.928,78.4
	c-7.193-1.008-13.841,4.007-14.849,11.2s4.006,13.841,11.2,14.849s13.842-4.006,14.85-11.2c0.17-1.21,0.17-2.439,0-3.649
	l14.832-18.624c1.689-2.106,1.524-5.146-0.384-7.056V64z"/>
</svg>
