<?xml version="1.0" encoding="utf-8"?>
<!-- Generator: Adobe Illustrator 16.0.0, SVG Export Plug-In . SVG Version: 6.00 Build 0)  -->
<!DOCTYPE svg PUBLIC "-//W3C//DTD SVG 1.1//EN" "http://www.w3.org/Graphics/SVG/1.1/DTD/svg11.dtd">
<svg version="1.1" id="Layer_1" xmlns="http://www.w3.org/2000/svg" xmlns:xlink="http://www.w3.org/1999/xlink" x="0px" y="0px"
	 width="200px" height="200px" viewBox="0 0 200 200" enable-background="new 0 0 200 200" xml:space="preserve">
<g>
	<g>
		<polygon points="98.72,120.641 92.8,120.641 92.8,105.279 98.72,105.279 98.72,101.12 82.24,101.12 82.24,105.279 88.16,105.279 
			88.16,120.641 82.24,120.641 82.24,124.641 98.72,124.641 		"/>
		<path d="M108.96,124.48c0.64,0.16,1.28,0.319,2.08,0.479s1.44,0.16,2.399,0.16c1.281,0,2.4-0.16,3.521-0.479
			c1.12-0.32,2.08-0.801,2.88-1.44c0.801-0.64,1.439-1.44,1.92-2.24c0.48-0.96,0.641-1.92,0.641-3.2c0-1.279-0.32-2.24-0.801-3.199
			c-0.64-0.801-1.279-1.44-2.08-2.08c-0.799-0.48-1.76-0.961-2.72-1.44c-0.96-0.319-1.92-0.8-2.72-1.12
			c-0.801-0.32-1.6-0.8-2.08-1.279c-0.48-0.48-0.8-1.121-0.8-1.761s0.319-1.28,0.96-1.76c0.64-0.479,1.439-0.64,2.561-0.64
			c0.639,0,1.119,0,1.76,0.16c0.64,0,1.119,0.159,1.6,0.319h0.16v3.681h3.68v-6.881c-0.8-0.48-1.76-0.8-3.199-0.96
			c-1.441-0.159-2.721-0.32-4-0.32c-1.281,0-2.24,0.161-3.361,0.48c-0.959,0.319-1.76,0.8-2.56,1.44c-0.8,0.64-1.28,1.279-1.6,2.24
			c-0.32,0.799-0.64,1.76-0.64,2.719c0,1.281,0.319,2.4,0.799,3.201c0.641,0.799,1.281,1.439,2.08,2.08
			c0.801,0.479,1.761,0.959,2.721,1.439s1.92,0.641,2.72,1.12c0.8,0.319,1.601,0.8,2.08,1.28c0.479,0.479,0.64,1.119,0.64,1.92
			c0,0.8-0.32,1.6-1.119,2.08c-0.641,0.479-1.601,0.799-2.881,0.799c-0.64,0-1.279,0-1.92-0.159c-0.64-0.16-1.119-0.32-1.76-0.479
			h-0.16v-3.361h-3.68v5.921c0.32,0.159,0.641,0.319,1.12,0.64C107.84,124,108.32,124.32,108.96,124.48z"/>
		<path d="M130.721,121.76c0.639,1.12,1.6,1.92,2.719,2.561c1.121,0.64,2.561,0.959,4.16,0.959c3.041,0,5.28-1.119,6.721-3.199
			c1.439-2.24,2.24-5.12,2.24-8.96c0-1.761-0.16-3.36-0.48-4.96c-0.32-1.439-0.801-2.721-1.6-3.84
			c-0.641-1.12-1.601-1.92-2.721-2.561c-1.119-0.64-2.56-0.96-4.16-0.96c-1.439,0-2.879,0.32-3.84,0.8
			c-1.119,0.641-2.08,1.44-2.72,2.4c-0.8,1.12-1.28,2.4-1.601,3.84c-0.319,1.6-0.479,3.2-0.479,5.12c0,1.761,0.16,3.36,0.479,4.96
			C129.439,119.359,129.92,120.641,130.721,121.76z M134.4,106.88c0.479-1.44,1.6-2.08,3.199-2.08c0.961,0,1.601,0.16,2.08,0.64
			c0.48,0.48,0.961,0.961,1.28,1.761s0.479,1.6,0.479,2.56c0,0.961,0.16,2.08,0.16,3.2c0,1.44,0,2.56-0.16,3.681
			c-0.16,0.959-0.319,1.92-0.64,2.56c-0.319,0.64-0.8,1.12-1.28,1.44c-0.479,0.319-1.119,0.479-1.92,0.479
			c-0.8,0-1.6-0.16-2.08-0.64c-0.479-0.48-0.959-0.961-1.279-1.76c-0.32-0.801-0.48-1.601-0.641-2.561s-0.16-2.08-0.16-3.2
			C133.6,110.24,133.76,108.16,134.4,106.88z"/>
	</g>
</g>
<rect x="69.5" y="90.5" fill="none" stroke="#000000" stroke-width="6" stroke-miterlimit="10" width="91" height="42"/>
</svg>
