<svg xmlns="http://www.w3.org/2000/svg" xmlns:xlink="http://www.w3.org/1999/xlink" xmlns:sketch="http://www.bohemiancoding.com/sketch/ns" viewBox="0 0 39 68.75" version="1.1" x="0px" y="0px"><title>305 - Location (Solid)</title><desc>Created with Sketch.</desc><g stroke="none" stroke-width="1" fill="none" fill-rule="evenodd" sketch:type="MSPage"><g sketch:type="MSLayerGroup" fill="#000000"><path d="M33.383,5.617 C29.761,1.995 24.945,0 19.823,0 C14.7,0 9.885,1.995 6.264,5.617 C-0.44,12.319 -1.273,24.929 4.46,32.569 L19.823,54.757 L35.164,32.6 C40.919,24.929 40.086,12.319 33.383,5.617 L33.383,5.617 Z M20,26 C16.141,26 13,22.859 13,19 C13,15.141 16.141,12 20,12 C23.859,12 27,15.141 27,19 C27,22.859 23.859,26 20,26 L20,26 Z" sketch:type="MSShapeGroup"/></g></g><text x="0" y="70" fill="#000000" font-size="5px" font-weight="bold" font-family="'Helvetica Neue', Helvetica, Arial-Unicode, Arial, Sans-serif">Created by Oliviu Stoian</text><text x="0" y="75" fill="#000000" font-size="5px" font-weight="bold" font-family="'Helvetica Neue', Helvetica, Arial-Unicode, Arial, Sans-serif">from the Noun Project</text></svg>